<svg xmlns="http://www.w3.org/2000/svg" width="128" height="148" viewBox="0 0 128 148" role="img" aria-label="DFIR-Nexus logo">
  <defs>
    <linearGradient id="blueGrad" x1="0" y1="0" x2="1" y2="1">
      <stop offset="0%" stop-color="#2563eb"/>
      <stop offset="55%" stop-color="#1e3a8a"/>
      <stop offset="100%" stop-color="#030712"/>
    </linearGradient>
  </defs>
  <g transform="translate(9,3)">
    <path d="M55 0 L110 18 V62 C110 100 86 128 55 145 C24 128 0 100 0 62 V18 Z"
          fill="url(#blueGrad)" stroke="#091a3a" stroke-width="2"/>
    <path d="M78 26 Q78 34 86 34 Q78 34 78 42 Q78 34 70 34 Q78 34 78 26 Z" fill="#ffffff" opacity="0.9"/>
    <path d="M38 62 C38 52, 62 52, 62 62" fill="none" stroke="#ffffff" stroke-width="2" stroke-linecap="round" opacity="0.75"/>
    <path d="M42 62 C42 56, 58 56, 58 62" fill="none" stroke="#ffffff" stroke-width="2" stroke-linecap="round" opacity="0.75"/>
    <path d="M46 62 C46 59, 54 59, 54 62" fill="none" stroke="#ffffff" stroke-width="2" stroke-linecap="round" opacity="0.75"/>
    <path d="M34 62 C34 46, 66 46, 66 62" fill="none" stroke="#ffffff" stroke-width="2" stroke-linecap="round" opacity="0.5"/>
    <path d="M50 62 V76" fill="none" stroke="#ffffff" stroke-width="2" stroke-linecap="round" opacity="0.75"/>
    <path d="M46 62 Q46 72 42 75" fill="none" stroke="#ffffff" stroke-width="2" stroke-linecap="round" opacity="0.6"/>
    <path d="M54 62 Q54 72 58 75" fill="none" stroke="#ffffff" stroke-width="2" stroke-linecap="round" opacity="0.6"/>
    <circle cx="50" cy="62" r="22" fill="none" stroke="#ffffff" stroke-width="4.5" opacity="0.95"/>
    <path d="M36 50 A20 20 0 0 1 64 50" fill="none" stroke="#ffffff" stroke-width="1.5" opacity="0.6" stroke-linecap="round"/>
    <line x1="65" y1="77" x2="85" y2="97" stroke="#ffffff" stroke-width="6.5" stroke-linecap="round" opacity="0.95"/>
  </g>
</svg>
